<?xml version="1.0" encoding="UTF-8" standalone="no"?>
<!-- Created with Inkscape (http://www.inkscape.org/) -->

<svg
   width="57.096085mm"
   height="19.744789mm"
   viewBox="0 0 57.096085 19.744789"
   version="1.1"
   id="svg5"
   xml:space="preserve"
   inkscape:version="1.2.2 (732a01da63, 2022-12-09)"
   xmlns:inkscape="http://www.inkscape.org/namespaces/inkscape"
   xmlns:sodipodi="http://sodipodi.sourceforge.net/DTD/sodipodi-0.dtd"
   xmlns="http://www.w3.org/2000/svg"
   xmlns:svg="http://www.w3.org/2000/svg"><sodipodi:namedview
     id="namedview7"
     pagecolor="#ffffff"
     bordercolor="#000000"
     borderopacity="0.25"
     inkscape:showpageshadow="2"
     inkscape:pageopacity="0.0"
     inkscape:pagecheckerboard="0"
     inkscape:deskcolor="#d1d1d1"
     inkscape:document-units="mm"
     showgrid="false"
     inkscape:zoom="1.9552971"
     inkscape:cx="23.270121"
     inkscape:cy="40.403068"
     inkscape:window-width="1920"
     inkscape:window-height="974"
     inkscape:window-x="-11"
     inkscape:window-y="-11"
     inkscape:window-maximized="1"
     inkscape:current-layer="layer1" /><defs
     id="defs2" /><g
     inkscape:label="Livello 1"
     inkscape:groupmode="layer"
     id="layer1"
     transform="translate(-66.955026,-103.67675)"><g
       aria-label="Università"
       id="text385"
       style="font-weight:bold;font-size:8.91776px;font-family:'Franklin Gothic Demi Cond';-inkscape-font-specification:'Franklin Gothic Demi Cond Bold';fill:#1d1d1b;fill-rule:evenodd;stroke-width:3.24756;stroke-linecap:round;stroke-linejoin:round;paint-order:markers stroke fill"><path
         id="path1904"
         d="M 105.73612 103.67675 L 105.2483 104.40384 L 106.85543 105.40998 L 107.22079 105.04411 L 105.73612 103.67675 z M 83.959673 104.30824 L 83.959673 105.52315 L 85.205075 105.52315 L 85.205075 104.30824 L 83.959673 104.30824 z M 99.883765 104.30824 L 99.883765 105.52315 L 101.12917 105.52315 L 101.12917 104.30824 L 99.883765 104.30824 z M 74.663083 104.33873 L 74.663083 107.7349 C 74.663083 108.52449 74.725843 109.07607 74.850668 109.38958 C 74.975493 109.70019 75.186056 109.94249 75.482154 110.11667 C 75.778251 110.28794 76.184482 110.37402 76.701201 110.37402 C 77.252755 110.37402 77.685282 110.2562 77.998796 110.02107 C 78.315214 109.78593 78.510881 109.50418 78.586357 109.17616 C 78.664736 108.84813 78.70418 108.35038 78.70418 107.68271 L 78.70418 104.33873 L 77.611223 104.33873 L 77.611223 107.7349 C 77.611223 108.21679 77.596842 108.5464 77.567815 108.72347 C 77.538786 108.90055 77.460415 109.04291 77.332687 109.15032 C 77.204959 109.25773 77.032091 109.31155 76.814373 109.31155 C 76.614071 109.31155 76.444183 109.26317 76.304843 109.16737 C 76.168409 109.06867 76.078639 108.92508 76.035092 108.73639 C 75.991552 108.5477 75.969463 108.21388 75.969463 107.7349 L 75.969463 104.33873 L 74.663083 104.33873 z M 103.39776 104.4953 L 102.20455 104.53458 L 102.20455 105.88385 L 101.71725 105.88385 L 101.71725 106.85072 L 102.20455 106.85072 L 102.20455 108.601 C 102.20455 109.06837 102.2321 109.40989 102.28724 109.62471 C 102.34239 109.83952 102.46862 110.01783 102.66602 110.16008 C 102.86342 110.30232 103.14815 110.3735 103.51972 110.3735 C 103.74615 110.3735 103.99564 110.34296 104.26851 110.28203 L 104.26851 109.35031 C 104.12917 109.35631 104.0131 109.35909 103.92021 109.35909 C 103.74604 109.35909 103.62155 109.33034 103.54607 109.27227 C 103.47352 109.21131 103.42987 109.13715 103.41533 109.05007 C 103.40373 108.96008 103.39776 108.76564 103.39776 108.46664 L 103.39776 106.85123 L 104.20753 106.85123 L 104.20753 105.88437 L 103.39776 105.88437 L 103.39776 104.4953 z M 97.663229 105.7929 C 97.216181 105.7929 96.842918 105.92088 96.543918 106.17634 C 96.247821 106.43179 96.100017 106.77106 96.100017 107.19488 C 96.100017 107.49678 96.193998 107.7624 96.382687 107.99173 C 96.571377 108.22107 96.918344 108.41725 97.42345 108.57981 C 97.699227 108.6669 97.885243 108.74824 97.981039 108.82372 C 98.076835 108.8992 98.1247 109.00931 98.1247 109.15445 C 98.1247 109.42732 97.962 109.56373 97.636874 109.56373 C 97.256593 109.56373 97.025691 109.34474 96.94441 108.9064 L 95.969276 109.06298 C 96.076683 109.93676 96.625276 110.37402 97.61517 110.37402 C 98.140598 110.37402 98.549808 110.23586 98.843002 109.96009 C 99.136196 109.68431 99.282769 109.3433 99.282769 108.93689 C 99.282769 108.70175 99.229463 108.49417 99.122055 108.31419 C 99.014647 108.13131 98.882454 107.99491 98.725697 107.90492 C 98.568939 107.81493 98.321912 107.71026 97.985173 107.59124 C 97.686174 107.48673 97.488758 107.39696 97.392961 107.32149 C 97.297165 107.24601 97.249301 107.13539 97.249301 106.99024 C 97.249301 106.73479 97.377284 106.60732 97.63274 106.60732 C 97.946254 106.60732 98.161029 106.80597 98.277145 107.20367 L 99.152544 106.9427 C 98.940631 106.17633 98.444113 105.7929 97.663229 105.7929 z M 106.54589 105.7929 C 106.0582 105.7929 105.6532 105.91194 105.33098 106.14998 C 105.01164 106.38802 104.82439 106.7278 104.76926 107.16904 L 105.93198 107.28221 C 105.96391 106.83226 106.13678 106.60732 106.45029 106.60732 C 106.62155 106.60732 106.73587 106.66361 106.79394 106.77682 C 106.85494 106.89003 106.88541 107.09341 106.88541 107.3866 L 106.88541 107.55197 C 106.02614 107.60422 105.4339 107.76569 105.10877 108.03566 C 104.78364 108.30273 104.62146 108.68143 104.62146 109.17202 C 104.62146 109.56391 104.72859 109.86302 104.9434 110.06912 C 105.15822 110.27232 105.43698 110.37402 105.77953 110.37402 C 106.31366 110.37402 106.71568 110.11857 106.98566 109.60765 C 106.98566 109.93859 107.00597 110.16353 107.04664 110.28255 L 108.183 110.28255 C 108.13367 110.17804 108.1091 109.85264 108.1091 109.3069 L 108.1091 107.55197 C 108.1091 107.11363 108.07562 106.78998 108.00885 106.58097 C 107.94498 106.37196 107.78825 106.18944 107.5386 106.03268 C 107.28895 105.87302 106.9581 105.7929 106.54589 105.7929 z M 81.983049 105.79755 C 81.451816 105.79755 81.084512 106.0267 80.881308 106.48536 L 80.881308 105.88437 L 79.718588 105.88437 L 79.718588 110.28255 L 80.94642 110.28255 L 80.94642 107.70441 C 80.94642 107.33574 80.981653 107.08503 81.051323 106.95149 C 81.120993 106.81505 81.265817 106.74685 81.486439 106.74685 C 81.614167 106.74685 81.715854 106.78157 81.79133 106.85123 C 81.866805 106.92091 81.904501 107.10343 81.904501 107.39952 L 81.904501 110.28255 L 83.132333 110.28255 L 83.132333 107.39952 C 83.132333 106.99021 83.106555 106.68566 83.054302 106.48536 C 83.00205 106.28506 82.881257 106.12113 82.692567 105.9934 C 82.50678 105.86277 82.270438 105.79755 81.983049 105.79755 z M 90.918421 105.79755 C 90.363964 105.79755 89.921269 105.99918 89.590337 106.40268 C 89.262308 106.80329 89.09786 107.38536 89.09786 108.14883 C 89.09786 108.82521 89.25337 109.36487 89.563982 109.76837 C 89.874594 110.17187 90.328689 110.37402 90.926689 110.37402 C 91.896263 110.37402 92.478341 109.86312 92.672836 108.84129 L 91.57988 108.77153 C 91.533433 109.27374 91.323387 109.52446 90.94891 109.52446 C 90.774736 109.52446 90.633605 109.458 90.526197 109.32447 C 90.418789 109.19093 90.364967 108.92655 90.364967 108.53175 L 90.364967 108.28784 L 92.672836 108.28784 C 92.672836 107.33859 92.504696 106.68708 92.167957 106.33292 C 91.834122 105.97586 91.417722 105.79755 90.918421 105.79755 z M 95.511939 105.82804 C 95.012638 105.82804 94.665671 106.20079 94.471176 106.94683 L 94.471176 105.88437 L 93.391655 105.88437 L 93.391655 110.28255 L 94.619487 110.28255 L 94.619487 108.38809 C 94.619487 107.48238 94.91859 107.02952 95.51659 107.02952 C 95.563037 107.02952 95.631238 107.03549 95.721229 107.04709 L 95.721229 105.84974 C 95.642849 105.83521 95.572899 105.82804 95.511939 105.82804 z M 83.968458 105.88437 L 83.968458 110.28255 L 85.19629 110.28255 L 85.19629 105.88437 L 83.968458 105.88437 z M 85.54924 105.88437 L 86.789991 110.28255 L 87.761508 110.28255 L 88.967636 105.88437 L 87.948577 105.88437 L 87.334661 108.48421 L 86.729013 105.88437 L 85.54924 105.88437 z M 99.89255 105.88437 L 99.89255 110.28255 L 101.12038 110.28255 L 101.12038 105.88437 L 99.89255 105.88437 z M 90.944259 106.60732 C 91.327444 106.60732 91.518901 106.8903 91.518901 107.45636 C 91.518901 107.48538 91.517701 107.52605 91.514767 107.57832 L 90.373752 107.57832 C 90.376654 106.93097 90.56688 106.60732 90.944259 106.60732 z M 106.88592 108.17932 L 106.88592 108.39688 C 106.88592 108.84392 106.82491 109.15145 106.70299 109.31982 C 106.58397 109.48528 106.45002 109.56838 106.30198 109.56838 C 106.02911 109.56838 105.8927 109.38236 105.8927 109.01079 C 105.8927 108.73211 105.96809 108.53469 106.11904 108.41858 C 106.2729 108.29959 106.52886 108.21998 106.88592 108.17932 z M 74.663083 111.31711 L 74.663083 117.26093 L 75.72555 117.26093 L 75.72555 112.28398 L 76.836077 117.26093 L 77.785373 117.26093 L 79.000286 112.28398 L 79.000286 117.26093 L 80.223984 117.26093 L 80.223984 111.31711 L 78.364665 111.31711 L 77.419504 114.9882 L 76.579245 111.31711 L 74.663083 111.31711 z M 97.741261 111.47421 L 96.548568 111.51296 L 96.548568 112.86275 L 96.060743 112.86275 L 96.060743 113.82962 L 96.548568 113.82962 L 96.548568 115.5799 C 96.548568 116.04727 96.576097 116.38827 96.631251 116.60309 C 96.686407 116.81791 96.812641 116.99621 97.010039 117.13846 C 97.207437 117.2807 97.491644 117.35188 97.863217 117.35188 C 98.089644 117.35188 98.339651 117.32135 98.612525 117.26042 L 98.612525 116.32869 C 98.473185 116.33469 98.357119 116.33799 98.264226 116.33799 C 98.090052 116.33799 97.965048 116.30873 97.889572 116.25066 C 97.816998 116.1897 97.773344 116.11554 97.758831 116.02845 C 97.747217 115.93846 97.741261 115.74402 97.741261 115.44502 L 97.741261 113.82962 L 98.551547 113.82962 L 98.551547 112.86327 L 97.741261 112.86327 L 97.741261 111.47421 z M 93.900668 112.7718 C 93.412979 112.7718 93.008496 112.89085 92.686272 113.12889 C 92.36695 113.36693 92.179702 113.70619 92.124549 114.14743 L 93.286752 114.2606 C 93.318684 113.81065 93.491552 113.58571 93.805067 113.58571 C 93.976337 113.58571 94.091172 113.64251 94.149232 113.75572 C 94.210192 113.86893 94.240699 114.07231 94.240699 114.3655 L 94.240699 114.53087 C 93.381437 114.58311 92.78919 114.74407 92.464063 115.01404 C 92.138937 115.28111 91.976238 115.65981 91.976238 116.15041 C 91.976238 116.5423 92.083883 116.8414 92.298699 117.04751 C 92.513514 117.25072 92.791763 117.3524 93.134307 117.3524 C 93.668443 117.3524 94.07098 117.09695 94.340951 116.58604 C 94.340951 116.91697 94.36129 117.14191 94.401929 117.26093 L 95.538294 117.26093 C 95.488941 117.15643 95.464397 116.83155 95.464397 116.2858 L 95.464397 114.53087 C 95.464397 114.09252 95.430911 113.76887 95.364145 113.55987 C 95.30028 113.35085 95.14354 113.16782 94.893889 113.01106 C 94.644239 112.8514 94.312882 112.7718 93.900668 112.7718 z M 82.866716 112.77594 C 82.312259 112.77594 81.869564 112.97756 81.538632 113.38107 C 81.210603 113.78167 81.046672 114.36375 81.046672 115.12721 C 81.046672 115.80359 81.202182 116.34376 81.512794 116.74727 C 81.823405 117.15078 82.277501 117.3524 82.875501 117.3524 C 83.845075 117.3524 84.427153 116.8415 84.621648 115.81968 L 83.528691 115.74991 C 83.482245 116.25212 83.271682 116.50336 82.897205 116.50336 C 82.723031 116.50336 82.582417 116.43639 82.475009 116.30285 C 82.367601 116.16931 82.313778 115.90545 82.313778 115.51065 L 82.313778 115.26674 L 84.621648 115.26674 C 84.621648 114.31749 84.453507 113.66546 84.116769 113.3113 C 83.782934 112.95424 83.366017 112.77594 82.866716 112.77594 z M 89.768621 112.77594 C 89.199649 112.77594 88.756953 112.9716 88.440536 113.3635 C 88.127021 113.75539 87.970281 114.32607 87.970281 115.07502 C 87.970281 115.82978 88.119832 116.39871 88.418832 116.78189 C 88.720735 117.16217 89.154493 117.3524 89.720561 117.3524 C 90.768513 117.3524 91.343402 116.77453 91.445004 115.61917 L 90.303988 115.54528 C 90.274959 116.08812 90.106818 116.3597 89.79911 116.3597 C 89.601711 116.3597 89.45216 116.25924 89.350558 116.05894 C 89.251859 115.85864 89.202764 115.50746 89.202764 115.00526 C 89.202764 114.14019 89.4086 113.70766 89.820814 113.70766 C 89.98628 113.70766 90.104094 113.77761 90.173764 113.91695 C 90.243431 114.05339 90.286568 114.25624 90.303988 114.52622 L 91.445004 114.48281 C 91.355014 113.34486 90.796252 112.77594 89.768621 112.77594 z M 100.72868 112.77594 C 99.535579 112.77594 98.93912 113.53807 98.93912 115.0621 C 98.93912 116.58903 99.535579 117.3524 100.72868 117.3524 C 101.91887 117.3524 102.5141 116.58903 102.5141 115.0621 C 102.5141 113.53807 101.91887 112.77594 100.72868 112.77594 z M 112.44631 112.77594 C 111.94411 112.77594 111.5882 113.00509 111.37919 113.46375 L 111.37919 112.86327 L 110.21698 112.86327 L 110.21647 117.26093 L 111.44482 117.26093 L 111.44482 114.70037 C 111.44482 114.32008 111.47655 114.0634 111.54042 113.92987 C 111.60718 113.79344 111.73938 113.72523 111.93678 113.72523 C 112.09645 113.72523 112.19813 113.77187 112.24167 113.86476 C 112.28813 113.95765 112.31143 114.16051 112.31143 114.47402 L 112.31143 117.26093 L 113.53926 117.26093 L 113.53926 114.70037 C 113.53926 114.30847 113.56801 114.04882 113.62608 113.92109 C 113.68414 113.79046 113.80914 113.72523 114.00073 113.72523 C 114.16037 113.72523 114.26329 113.77433 114.30976 113.87303 C 114.35622 113.97173 114.37952 114.18526 114.37952 114.5133 L 114.37952 117.26093 L 115.60322 117.26093 L 115.60322 114.38721 C 115.60322 113.885 115.56974 113.54399 115.50297 113.36401 C 115.4362 113.18113 115.31715 113.03702 115.14588 112.93252 C 114.97751 112.82801 114.74959 112.77594 114.4622 112.77594 C 113.94838 112.77594 113.593 113.00509 113.3956 113.46375 C 113.28529 113.00509 112.96883 112.77594 112.44631 112.77594 z M 87.460751 112.80643 C 86.96145 112.80643 86.614483 113.17968 86.419988 113.92574 L 86.419988 112.86327 L 85.340467 112.86327 L 85.340467 117.26093 L 86.568299 117.26093 L 86.568299 115.36699 C 86.568299 114.46128 86.867402 114.00842 87.465402 114.00842 C 87.511849 114.00842 87.58005 114.01387 87.670041 114.02547 L 87.670041 112.82813 C 87.591661 112.8136 87.521711 112.80643 87.460751 112.80643 z M 105.34855 112.80643 C 104.84925 112.80643 104.50228 113.17968 104.30778 113.92574 L 104.30778 112.86327 L 103.22775 112.86327 L 103.22775 117.26093 L 104.4561 117.26093 L 104.4561 115.36699 C 104.4561 114.46128 104.75468 114.00842 105.35268 114.00842 C 105.39913 114.00842 105.46785 114.01387 105.55784 114.02547 L 105.55784 112.82813 C 105.47943 112.8136 105.40948 112.80643 105.34855 112.80643 z M 105.90149 112.86327 L 105.90149 115.72408 C 105.90149 116.1479 105.92605 116.45964 105.97538 116.65994 C 106.02474 116.86024 106.13361 117.02592 106.30198 117.15655 C 106.47035 117.28718 106.71317 117.3524 107.02958 117.3524 C 107.26472 117.3524 107.46758 117.31172 107.63885 117.23044 C 107.81303 117.14916 107.98712 116.95894 108.1613 116.65994 L 108.1613 117.26093 L 109.31523 117.26093 L 109.31523 112.86327 L 108.0874 112.86327 L 108.0874 115.10551 C 108.0874 115.53514 108.07896 115.81986 108.06156 115.9592 C 108.04414 116.09564 107.9933 116.20278 107.90912 116.28115 C 107.82783 116.35953 107.70704 116.39897 107.54738 116.39897 C 107.37322 116.39897 107.26013 116.3511 107.20787 116.25531 C 107.1556 116.15951 107.12932 115.96929 107.12932 115.6848 L 107.12932 112.86327 L 105.90149 112.86327 z M 82.893071 113.58571 C 83.276256 113.58571 83.467713 113.86868 83.467713 114.43475 C 83.467713 114.46376 83.466512 114.50444 83.463579 114.55671 L 82.322563 114.55671 C 82.325466 113.90936 82.515692 113.58571 82.893071 113.58571 z M 100.72868 113.62963 C 100.92027 113.62963 101.05369 113.72834 101.12917 113.92574 C 101.20755 114.12313 101.24699 114.50184 101.24699 115.0621 C 101.24699 115.60204 101.21053 115.97653 101.13795 116.18555 C 101.06538 116.39165 100.92897 116.49457 100.72868 116.49457 C 100.51967 116.49457 100.38029 116.38991 100.31061 116.1809 C 100.24095 115.97189 100.20623 115.59914 100.20623 115.0621 C 100.20623 114.48152 100.2469 114.09809 100.32818 113.9123 C 100.40946 113.72361 100.54289 113.62963 100.72868 113.62963 z M 94.240699 115.1577 L 94.240699 115.37526 C 94.240699 115.82231 94.179687 116.13035 94.057764 116.29872 C 93.938745 116.46419 93.805321 116.54677 93.657272 116.54677 C 93.384398 116.54677 93.247995 116.36127 93.247995 115.98969 C 93.247995 115.71101 93.323386 115.51359 93.474338 115.39748 C 93.628192 115.27849 93.883641 115.19837 94.240699 115.1577 z " /></g><g
       aria-label="Mercatorum"
       id="text385-6"
       style="font-weight:bold;font-size:8.91776px;font-family:'Franklin Gothic Demi Cond';-inkscape-font-specification:'Franklin Gothic Demi Cond Bold';fill:#1d1d1b;fill-rule:evenodd;stroke-width:3.24756;stroke-linecap:round;stroke-linejoin:round;paint-order:markers stroke fill" /><path
       style="fill:#a7353a;fill-opacity:1;fill-rule:evenodd;stroke-width:12.847;stroke-linecap:round;stroke-linejoin:round;paint-order:markers stroke fill"
       d="m 73.003078,112.24477 c 0,0 -4.059483,0.54127 -3.51822,4.70224 0.541266,4.16097 4.97287,4.49926 6.765809,4.53309 1.792941,0.0338 31.393353,0 31.393353,0 0,0 9.37065,0.37212 14.64798,-7.47622 0.16914,0.0338 0.43978,-1.2855 1.35316,-0.98104 0.91339,0.30446 0,1.75911 0,1.75911 l -4.98807,8.63959 H 75.066652 c -10.317059,-0.0404 -10.056465,-11.3615 -3.349076,-12.19164 0,0 2.097397,-0.27064 1.285502,1.01487 z"
       id="path1232"
       sodipodi:nodetypes="cscccsccccc" /></g></svg>
